<svg width="163" height="18" viewBox="0 0 163 18" fill="none" xmlns="http://www.w3.org/2000/svg">
<path fill-rule="evenodd" clip-rule="evenodd" d="M52.2506 16.1334C52.2506 16.4844 52.0742 16.6598 51.7215 16.6598H45.5076C45.3575 16.6598 45.2355 16.6159 45.1417 16.5282C45.0479 16.4405 45.001 16.3165 45.001 16.1563C45.001 16.019 45.0329 15.9084 45.0967 15.8245C45.1605 15.7405 45.2599 15.6719 45.395 15.6185L45.8791 15.4697C45.9991 15.4316 46.093 15.3591 46.1605 15.2523C46.228 15.1455 46.2618 14.9929 46.2618 14.7946V8.18047C46.2618 8.07367 46.2355 7.98403 46.183 7.91156C46.1305 7.83909 46.0329 7.77233 45.8903 7.7113L45.2374 7.49389C45.0648 7.40997 44.941 7.32033 44.8659 7.22497C44.7909 7.12961 44.7534 7.01328 44.7534 6.87596C44.7534 6.73864 44.8003 6.62612 44.8941 6.53839L44.9309 6.50754C45.0208 6.44037 45.138 6.40679 45.2824 6.40679H46.2703L46.2625 6.33992C46.2414 6.20618 46.1886 6.0778 46.1042 5.95479C45.9916 5.79077 45.8641 5.60577 45.7215 5.3998C45.5789 5.19382 45.4513 4.94779 45.3387 4.66172C45.2262 4.37564 45.1699 4.02281 45.1699 3.60323C45.1699 2.60387 45.5076 1.80476 46.183 1.2059C46.8584 0.607045 47.8191 0.307617 49.0648 0.307617C49.8679 0.307617 50.5339 0.437306 51.063 0.696683C51.5921 0.95606 51.9879 1.30126 52.2506 1.73228C52.5133 2.16331 52.6446 2.63438 52.6446 3.14551C52.6446 3.74818 52.4889 4.20018 52.1774 4.50151C51.866 4.80285 51.4664 4.95352 50.9786 4.95352C50.4382 4.95352 50.0029 4.77806 49.6727 4.42713C49.3425 4.07621 49.1774 3.61086 49.1774 3.03108V2.01264C49.1774 1.74563 49.1249 1.54919 49.0198 1.42332C48.9147 1.29745 48.7534 1.23451 48.5358 1.23451C48.2581 1.23451 48.0479 1.32987 47.9054 1.52059C47.7628 1.7113 47.6915 1.98594 47.6915 2.34449C47.6915 2.71067 47.7759 3.05396 47.9448 3.37437C48.1136 3.69478 48.3219 3.9942 48.5695 4.27265C48.8172 4.5511 49.0648 4.81811 49.3125 5.07367C49.5602 5.32923 49.7684 5.58098 49.9373 5.82891L49.9854 5.90324C50.0766 6.05177 50.1374 6.19961 50.1678 6.34677L50.178 6.40679H51.8454C52.018 6.40679 52.1512 6.44303 52.245 6.5155C52.3388 6.58797 52.3857 6.7005 52.3857 6.85307C52.3857 7.08193 52.2881 7.26884 52.093 7.41378C51.8979 7.55873 51.5902 7.6312 51.1699 7.6312H50.3707V14.7603C50.3707 14.9739 50.4026 15.1379 50.4664 15.2523C50.5301 15.3667 50.6333 15.4354 50.7759 15.4583L51.744 15.607C51.9166 15.6299 52.0442 15.6852 52.1268 15.773C52.2093 15.8607 52.2506 15.9809 52.2506 16.1334ZM30.0853 16.3966C29.4099 16.7247 28.6219 16.8887 27.7213 16.8887C26.7682 16.8887 25.9145 16.6865 25.1603 16.2822C24.4061 15.8779 23.8113 15.2924 23.3761 14.5257C22.9408 13.759 22.7231 12.8264 22.7231 11.7278C22.7231 10.6674 22.9502 9.71957 23.4042 8.88422C23.8582 8.04888 24.4905 7.38899 25.301 6.90457C26.1115 6.42014 27.0571 6.17793 28.1378 6.17793C29.0609 6.17793 29.8395 6.31525 30.4737 6.58988C31.1078 6.86452 31.5919 7.23642 31.9259 7.70558C32.2598 8.17475 32.4268 8.69923 32.4268 9.27901C32.4268 9.88931 32.2523 10.368 31.9033 10.7151C31.5544 11.0622 31.0797 11.2358 30.4793 11.2358C29.8639 11.2358 29.3967 11.0584 29.0778 10.7037C28.7588 10.3489 28.5994 9.86261 28.5994 9.24468V8.51232C28.5994 8.13851 28.5318 7.85625 28.3967 7.66553C28.2617 7.47481 28.0703 7.37945 27.8226 7.37945C27.575 7.37945 27.3517 7.48054 27.1528 7.6827C26.954 7.88486 26.8001 8.1881 26.6913 8.59242C26.5825 8.99675 26.5281 9.49643 26.5281 10.0915C26.5281 10.9459 26.6538 11.663 26.9052 12.2428C27.1566 12.8226 27.4999 13.2574 27.9352 13.5473C28.3705 13.8372 28.8658 13.9821 29.4211 13.9821C29.9765 13.9821 30.4418 13.9001 30.817 13.7361C31.1923 13.5721 31.4812 13.2955 31.6838 12.9065C31.7964 12.7997 31.8846 12.731 31.9484 12.7005C32.0122 12.67 32.0741 12.6547 32.1341 12.6547C32.2092 12.6624 32.2711 12.6986 32.3199 12.7634C32.3686 12.8283 32.3893 12.9294 32.3818 13.0667C32.3217 13.8143 32.0928 14.4742 31.6951 15.0463C31.2973 15.6185 30.7607 16.0686 30.0853 16.3966ZM41.5282 16.1678C40.6839 16.6331 39.7027 16.8658 38.5844 16.8658C37.4963 16.8658 36.5413 16.6388 35.7195 16.1849C34.8977 15.731 34.258 15.1035 33.8002 14.3025C33.3424 13.5015 33.1135 12.5746 33.1135 11.5219C33.1135 10.5149 33.3536 9.60895 33.8339 8.80412C34.3142 7.99929 34.9784 7.36038 35.8265 6.8874C36.6745 6.41442 37.6501 6.17793 38.7533 6.17793C39.849 6.17793 40.8059 6.40679 41.6239 6.86452C42.4419 7.32224 43.0798 7.95542 43.5376 8.76407C43.9954 9.57272 44.2243 10.5072 44.2243 11.5676C44.2243 12.5746 43.986 13.4767 43.5094 14.2739C43.0329 15.0711 42.3725 15.7024 41.5282 16.1678ZM39.44 15.6757C39.2073 15.7215 38.9803 15.6185 38.7589 15.3667C38.5375 15.115 38.3274 14.6916 38.1285 14.0966C37.9297 13.5015 37.7402 12.7196 37.5601 11.7507C37.3874 10.7819 37.2899 9.98467 37.2674 9.35911C37.2449 8.73355 37.2899 8.26057 37.4025 7.94017C37.515 7.61976 37.6876 7.43286 37.9203 7.37945C38.1529 7.33368 38.3799 7.43667 38.6013 7.68842C38.8227 7.94017 39.0347 8.36356 39.2374 8.9586C39.44 9.55364 39.6314 10.3356 39.8115 11.3044C39.9916 12.2733 40.091 13.0724 40.1098 13.7018C40.1286 14.3311 40.0798 14.806 39.9634 15.1264C39.8471 15.4468 39.6726 15.6299 39.44 15.6757ZM59.579 16.6598C59.9317 16.6598 60.1081 16.4844 60.1081 16.1334C60.1081 15.9809 60.0668 15.8607 59.9843 15.773C59.9017 15.6852 59.7741 15.6299 59.6015 15.607L58.6334 15.4583C58.4908 15.4354 58.3876 15.3667 58.3238 15.2523C58.26 15.1379 58.2281 14.9739 58.2281 14.7603V7.6312H59.0274C59.4477 7.6312 59.7554 7.55873 59.9505 7.41378C60.1456 7.26884 60.2432 7.08193 60.2432 6.85307C60.2432 6.7005 60.1963 6.58797 60.1025 6.5155C60.0087 6.44303 59.8754 6.40679 59.7028 6.40679H58.0355L58.0252 6.34677C57.9948 6.19961 57.9341 6.05177 57.8429 5.90324L57.7948 5.82891C57.6259 5.58098 57.4176 5.32923 57.17 5.07367C56.9223 4.81811 56.6747 4.5511 56.427 4.27265C56.1794 3.9942 55.9711 3.69478 55.8022 3.37437C55.6334 3.05396 55.549 2.71067 55.549 2.34449C55.549 1.98594 55.6202 1.7113 55.7628 1.52059C55.9054 1.32987 56.1156 1.23451 56.3932 1.23451C56.6109 1.23451 56.7722 1.29745 56.8773 1.42332C56.9824 1.54919 57.0349 1.74563 57.0349 2.01264V3.03108C57.0349 3.61086 57.2 4.07621 57.5302 4.42713C57.8604 4.77806 58.2957 4.95352 58.836 4.95352C59.3238 4.95352 59.7235 4.80285 60.0349 4.50151C60.3464 4.20018 60.5021 3.74818 60.5021 3.14551C60.5021 2.63438 60.3708 2.16331 60.1081 1.73228C59.8454 1.30126 59.4496 0.95606 58.9205 0.696683C58.3914 0.437306 57.7253 0.307617 56.9223 0.307617C55.6765 0.307617 54.7159 0.607045 54.0405 1.2059C53.3651 1.80476 53.0274 2.60387 53.0274 3.60323C53.0274 4.02281 53.0836 4.37564 53.1962 4.66172C53.3088 4.94779 53.4364 5.19382 53.579 5.3998C53.7215 5.60577 53.8491 5.79077 53.9617 5.95479C54.0461 6.0778 54.0989 6.20618 54.12 6.33992L54.1277 6.40679H53.1399C52.9955 6.40679 52.8783 6.44037 52.7884 6.50754L52.7516 6.53839C52.6577 6.62612 52.6108 6.73864 52.6108 6.87596C52.6108 7.01328 52.6484 7.12961 52.7234 7.22497C52.7985 7.32033 52.9223 7.40997 53.0949 7.49389L53.7478 7.7113C53.8904 7.77233 53.988 7.83909 54.0405 7.91156C54.093 7.98403 54.1193 8.07367 54.1193 8.18047V14.7946C54.1193 14.9929 54.0855 15.1455 54.018 15.2523C53.9504 15.3591 53.8566 15.4316 53.7366 15.4697L53.2525 15.6185C53.1174 15.6719 53.018 15.7405 52.9542 15.8245C52.8904 15.9084 52.8585 16.019 52.8585 16.1563C52.8585 16.3165 52.9054 16.4405 52.9992 16.5282C53.093 16.6159 53.215 16.6598 53.3651 16.6598H59.579ZM68.3933 16.328C67.6654 16.7018 66.8248 16.8887 65.8717 16.8887C64.8211 16.8887 63.898 16.6693 63.1025 16.2307C62.307 15.792 61.686 15.1779 61.2394 14.3884C60.7929 13.5988 60.5696 12.6852 60.5696 11.6477C60.5696 10.5568 60.7854 9.60132 61.2169 8.78123C61.6484 7.96115 62.2732 7.32224 63.0912 6.86452C63.9093 6.40679 64.8924 6.17793 66.0406 6.17793C67.0162 6.17793 67.8568 6.37055 68.5622 6.75581C69.2676 7.14106 69.8099 7.66363 70.1889 8.32351C70.5678 8.9834 70.7573 9.71766 70.7573 10.5263C70.7573 10.8772 70.6635 11.1538 70.4759 11.3559L70.4312 11.4008C70.2462 11.573 69.991 11.6592 69.6654 11.6592H64.5193L64.5304 11.712C64.6669 12.3402 64.9001 12.8433 65.2301 13.2212C65.7929 13.8658 66.5434 14.1881 67.4815 14.1881C68.0819 14.1881 68.6129 14.0508 69.0744 13.7761C69.5359 13.5015 69.8455 13.1201 70.0031 12.6318C70.0932 12.5327 70.1738 12.4659 70.2451 12.4316C70.3164 12.3973 70.3783 12.3801 70.4309 12.3801C70.5059 12.3801 70.5697 12.4106 70.6223 12.4716C70.6748 12.5327 70.7011 12.6357 70.7011 12.7806C70.7011 13.5282 70.4984 14.2129 70.0932 14.8346C69.6879 15.4564 69.1213 15.9542 68.3933 16.328ZM64.4019 10.7419C64.3912 10.5663 64.3858 10.3839 64.3858 10.1945C64.3858 9.47736 64.4383 8.91283 64.5434 8.50088C64.6485 8.08893 64.7836 7.79713 64.9487 7.62548C65.1138 7.45383 65.2976 7.36801 65.5003 7.36801C65.7629 7.36801 66.0087 7.59306 66.2376 8.04315C66.4665 8.49325 66.5809 9.24087 66.5809 10.286C66.5809 10.6064 66.4384 10.7666 66.1532 10.7666H64.4033L64.4019 10.7419ZM79.1552 16.328C78.4272 16.7018 77.5867 16.8887 76.6336 16.8887C75.5829 16.8887 74.6598 16.6693 73.8643 16.2307C73.0688 15.792 72.4478 15.1779 72.0013 14.3884C71.5547 13.5988 71.3315 12.6852 71.3315 11.6477C71.3315 10.5568 71.5472 9.60132 71.9787 8.78123C72.4103 7.96115 73.035 7.32224 73.8531 6.86452C74.6711 6.40679 75.6542 6.17793 76.8024 6.17793C77.778 6.17793 78.6186 6.37055 79.324 6.75581C80.0295 7.14106 80.5717 7.66363 80.9507 8.32351C81.3297 8.9834 81.5192 9.71766 81.5192 10.5263C81.5192 10.8772 81.4254 11.1538 81.2377 11.3559L81.193 11.4008C81.0081 11.573 80.7528 11.6592 80.4272 11.6592H75.2812L75.2922 11.712C75.4287 12.3402 75.662 12.8433 75.9919 13.2212C76.5548 13.8658 77.3052 14.1881 78.2433 14.1881C78.8437 14.1881 79.3747 14.0508 79.8362 13.7761C80.2978 13.5015 80.6073 13.1201 80.7649 12.6318C80.855 12.5327 80.9357 12.4659 81.007 12.4316C81.0783 12.3973 81.1402 12.3801 81.1927 12.3801C81.2678 12.3801 81.3315 12.4106 81.3841 12.4716C81.4366 12.5327 81.4629 12.6357 81.4629 12.7806C81.4629 13.5282 81.2603 14.2129 80.855 14.8346C80.4497 15.4564 79.8831 15.9542 79.1552 16.328ZM75.1637 10.7419C75.153 10.5663 75.1476 10.3839 75.1476 10.1945C75.1476 9.47736 75.2002 8.91283 75.3052 8.50088C75.4103 8.08893 75.5454 7.79713 75.7105 7.62548C75.8756 7.45383 76.0595 7.36801 76.2621 7.36801C76.5247 7.36801 76.7705 7.59306 76.9994 8.04315C77.2283 8.49325 77.3428 9.24087 77.3428 10.286C77.3428 10.6064 77.2002 10.7666 76.915 10.7666H75.1651L75.1637 10.7419ZM88.7519 16.5168C88.6581 16.6121 88.5211 16.6598 88.341 16.6598H82.7124C82.5473 16.6598 82.4179 16.614 82.324 16.5225C82.2302 16.4309 82.1833 16.3051 82.1833 16.1449C82.1833 16.0228 82.2115 15.9217 82.2678 15.8416C82.324 15.7615 82.401 15.6871 82.4985 15.6185L82.7574 15.5155C82.855 15.4697 82.9226 15.3973 82.9601 15.2981C82.9976 15.1989 83.0164 15.0349 83.0164 14.806V8.99293C83.0164 8.80984 82.9957 8.67825 82.9544 8.59814C82.9132 8.51804 82.8438 8.45511 82.7462 8.40933L82.4535 8.375C82.3484 8.31397 82.2715 8.24913 82.2227 8.18047C82.174 8.11181 82.1496 8.02408 82.1496 7.91728C82.1496 7.79522 82.1871 7.68651 82.2621 7.59115C82.3372 7.49579 82.4648 7.41378 82.6449 7.34513L85.8419 6.41823C86.0295 6.34195 86.1871 6.28855 86.3147 6.25803C86.4423 6.22752 86.5511 6.21226 86.6412 6.21226C86.7687 6.21226 86.8644 6.25803 86.9282 6.34958L86.9487 6.38277C87.0013 6.47846 87.0377 6.63141 87.0577 6.84163L87.1434 8.61976L87.1629 8.55412C87.2009 8.43026 87.2428 8.31143 87.2884 8.19764C87.5624 7.51486 87.9245 7.00755 88.3748 6.6757C88.825 6.34385 89.3166 6.17793 89.8494 6.17793C90.4949 6.17793 90.9902 6.39535 91.3354 6.83019C91.6806 7.26502 91.8532 7.92491 91.8532 8.80984C91.8532 9.68715 91.6731 10.3318 91.3129 10.7437C90.9526 11.1557 90.4874 11.3617 89.917 11.3617C89.3616 11.3617 88.9508 11.2205 88.6843 10.9383C88.4179 10.656 88.2772 10.2555 88.2622 9.73673L88.2509 9.27901C88.2434 9.10355 88.2097 8.96623 88.1496 8.86706C88.0896 8.76788 87.992 8.7183 87.8569 8.7183C87.7218 8.7183 87.6036 8.78886 87.5023 8.92999C87.401 9.07113 87.3241 9.28664 87.2716 9.57653C87.219 9.86642 87.1928 10.2364 87.1928 10.6865V14.7145C87.1928 14.9281 87.2265 15.0978 87.2941 15.2237C87.3616 15.3496 87.4667 15.4278 87.6093 15.4583L88.4536 15.6299C88.6112 15.6528 88.7237 15.7119 88.7913 15.8073C88.8588 15.9027 88.8926 16.0152 88.8926 16.1449C88.8926 16.2974 88.8457 16.4214 88.7519 16.5168ZM97.752 16.8658C98.8702 16.8658 99.8514 16.6331 100.696 16.1678C101.54 15.7024 102.2 15.0711 102.677 14.2739C103.154 13.4767 103.392 12.5746 103.392 11.5676C103.392 10.5072 103.163 9.57272 102.705 8.76407C102.247 7.95542 101.609 7.32224 100.791 6.86452C99.9734 6.40679 99.0165 6.17793 97.9208 6.17793C96.8176 6.17793 95.842 6.41442 94.994 6.8874C94.1459 7.36038 93.4818 7.99929 93.0014 8.80412C92.5211 9.60895 92.281 10.5149 92.281 11.5219C92.281 12.5746 92.5099 13.5015 92.9677 14.3025C93.4255 15.1035 94.0652 15.731 94.887 16.1849C95.7088 16.6388 96.6638 16.8658 97.752 16.8658ZM97.9264 15.3667C98.1478 15.6185 98.3749 15.7215 98.6075 15.6757C98.8401 15.6299 99.0146 15.4468 99.131 15.1264C99.2473 14.806 99.2961 14.3311 99.2773 13.7018C99.2585 13.0724 99.1591 12.2733 98.979 11.3044C98.7989 10.3356 98.6075 9.55364 98.4049 8.9586C98.2022 8.36356 97.9902 7.94017 97.7688 7.68842C97.5475 7.43667 97.3204 7.33368 97.0878 7.37945C96.8551 7.43286 96.6825 7.61976 96.57 7.94017C96.4574 8.26057 96.4124 8.73355 96.4349 9.35911C96.4574 9.98467 96.5549 10.7819 96.7276 11.7507C96.9077 12.7196 97.0972 13.5015 97.296 14.0966C97.4949 14.6916 97.7051 15.115 97.9264 15.3667ZM112.319 16.8887C112.949 16.8887 113.467 16.7723 113.872 16.5397C114.277 16.307 114.579 16.0304 114.778 15.71C114.977 15.3896 115.077 15.0959 115.077 14.8289C115.077 14.7145 115.052 14.6191 115.004 14.5428C114.955 14.4665 114.889 14.4284 114.807 14.4284C114.769 14.4284 114.735 14.436 114.705 14.4513C114.675 14.4665 114.649 14.4894 114.626 14.52C114.589 14.6573 114.531 14.7526 114.452 14.806C114.373 14.8594 114.289 14.8861 114.199 14.8861C114.071 14.8861 113.975 14.8423 113.912 14.7545C113.848 14.6668 113.816 14.5505 113.816 14.4055V9.34767C113.816 8.34068 113.476 7.56064 112.797 7.00755C112.118 6.45447 111.054 6.17793 109.606 6.17793C108.48 6.17793 107.54 6.31906 106.786 6.60132C106.032 6.88359 105.465 7.24404 105.086 7.6827C104.707 8.12135 104.517 8.56954 104.517 9.02726C104.517 9.5155 104.658 9.8874 104.94 10.143C105.221 10.3985 105.628 10.5263 106.161 10.5263C106.814 10.5263 107.328 10.3489 107.703 9.9942C108.079 9.63947 108.266 9.17984 108.266 8.61531V7.74563C108.266 7.53203 108.332 7.3661 108.463 7.24786C108.594 7.12961 108.758 7.07049 108.953 7.07049C109.163 7.07049 109.33 7.14869 109.454 7.30507C109.578 7.46146 109.639 7.67316 109.639 7.94017L109.639 11.2758L109.579 11.2628C109.398 11.2277 109.189 11.2077 108.95 11.2027L108.829 11.2015C107.215 11.2015 106.013 11.4761 105.221 12.0254C104.429 12.5746 104.033 13.3413 104.033 14.3254C104.033 15.073 104.305 15.6871 104.85 16.1678C105.394 16.6484 106.116 16.8887 107.017 16.8887C107.692 16.8887 108.322 16.7494 108.908 16.471C109.347 16.2622 109.704 15.9879 109.978 15.6482L109.993 15.6283L110.01 15.6795C110.096 15.9269 110.255 16.1485 110.486 16.3444L110.557 16.4023C110.973 16.7266 111.561 16.8887 112.319 16.8887ZM108.441 14.7316C108.624 14.9796 108.867 15.1035 109.167 15.1035L109.231 15.1013C109.359 15.0924 109.483 15.0566 109.603 14.994L109.639 14.9732V12.0368L109.583 12.0196C109.456 11.9853 109.306 11.9681 109.133 11.9681C108.84 11.9681 108.606 12.1055 108.429 12.3801C108.253 12.6547 108.165 13.059 108.165 13.5931C108.165 14.1042 108.257 14.4837 108.441 14.7316ZM120.255 16.923C121.591 16.923 122.615 16.614 123.328 15.9961C124.041 15.3782 124.398 14.5352 124.398 13.4672C124.398 12.8187 124.278 12.2504 124.037 11.7622C123.797 11.2739 123.377 10.841 122.777 10.4634C122.176 10.0857 121.332 9.7291 120.244 9.39344C119.838 9.26375 119.525 9.13216 119.304 8.99865C119.082 8.86515 118.93 8.72211 118.848 8.56954C118.765 8.41696 118.724 8.25294 118.724 8.07748C118.724 7.81811 118.818 7.60832 119.005 7.44811C119.193 7.28791 119.471 7.20781 119.838 7.20781C120.349 7.20781 120.831 7.37945 121.285 7.72275C121.739 8.06604 122.24 8.65345 122.788 9.48499C122.93 9.66045 123.073 9.78823 123.216 9.86833C123.358 9.94843 123.493 9.97322 123.621 9.94271C123.778 9.89694 123.876 9.79204 123.914 9.62802C123.951 9.46401 123.944 9.22942 123.891 8.92427L123.598 6.81874C123.568 6.59751 123.512 6.44112 123.429 6.34958C123.347 6.25803 123.238 6.21226 123.103 6.21226C122.983 6.21226 122.833 6.25422 122.653 6.33813C122.473 6.42205 122.294 6.50787 122.118 6.5956C121.942 6.68333 121.808 6.7272 121.718 6.7272C121.636 6.7272 121.514 6.68143 121.353 6.58988C121.191 6.49834 120.964 6.40679 120.671 6.31525C120.379 6.2237 120 6.17793 119.535 6.17793C118.762 6.17793 118.065 6.31906 117.446 6.60132C116.827 6.88359 116.339 7.286 115.983 7.80857C115.626 8.33114 115.448 8.95479 115.448 9.67952C115.448 10.3203 115.581 10.881 115.848 11.3617C116.114 11.8423 116.521 12.2542 117.069 12.5975C117.617 12.9408 118.307 13.2193 119.141 13.4329C119.681 13.5778 120.095 13.7247 120.384 13.8734C120.673 14.0222 120.872 14.1843 120.981 14.3597C121.09 14.5352 121.144 14.7297 121.144 14.9433C121.144 15.2256 121.05 15.4583 120.863 15.6414C120.675 15.8245 120.39 15.916 120.007 15.916C119.647 15.916 119.304 15.8378 118.977 15.6814C118.651 15.525 118.315 15.2561 117.97 14.8747C117.625 14.4932 117.238 13.9707 116.81 13.307C116.683 13.1315 116.538 13.0095 116.377 12.9408C116.216 12.8721 116.052 12.876 115.887 12.9522C115.73 13.0133 115.628 13.143 115.583 13.3413C115.538 13.5397 115.549 13.7838 115.617 14.0737L115.966 16.3508C116.019 16.5797 116.094 16.7323 116.191 16.8086C116.289 16.8849 116.394 16.923 116.506 16.923C116.634 16.923 116.79 16.881 116.974 16.7971L117.525 16.5454C117.709 16.4615 117.857 16.4195 117.97 16.4195C118.082 16.4195 118.231 16.4615 118.414 16.5454C118.598 16.6293 118.838 16.7132 119.135 16.7971C119.431 16.881 119.805 16.923 120.255 16.923ZM130.927 16.4939C130.431 16.7571 129.846 16.8887 129.171 16.8887C128.03 16.8887 127.172 16.6102 126.598 16.0533C126.024 15.4964 125.737 14.6191 125.737 13.4214V8.24913C125.737 8.08893 125.722 7.96687 125.692 7.88295C125.662 7.79904 125.587 7.73038 125.467 7.67698L124.938 7.50533C124.81 7.4443 124.728 7.36992 124.69 7.28219C124.653 7.19446 124.634 7.08575 124.634 6.95606C124.634 6.79586 124.69 6.66426 124.803 6.56127C124.915 6.45828 125.054 6.40679 125.219 6.40679H125.771C125.839 6.40679 125.91 6.38009 125.985 6.32669C126.06 6.27329 126.161 6.16649 126.289 6.00628L128.371 4.25549C128.521 4.0724 128.672 3.93317 128.822 3.83781C128.972 3.74246 129.122 3.69478 129.272 3.69478C129.445 3.69478 129.58 3.74818 129.677 3.85498L129.708 3.89284C129.785 3.99983 129.824 4.15504 129.824 4.35848L129.823 6.40679H132.176C132.341 6.40679 132.469 6.44303 132.559 6.5155C132.649 6.58797 132.694 6.7005 132.694 6.85307C132.694 7.06668 132.6 7.24977 132.413 7.40234L132.371 7.43387C132.182 7.56542 131.895 7.6312 131.512 7.6312H129.823L129.824 12.8493C129.824 13.4214 129.919 13.8448 130.111 14.1194C130.302 14.3941 130.582 14.5314 130.949 14.5314C131.107 14.5314 131.253 14.4971 131.388 14.4284C131.523 14.3597 131.645 14.2701 131.754 14.1595C131.863 14.0489 131.966 13.9249 132.064 13.7876C132.161 13.6503 132.255 13.513 132.345 13.3756C132.42 13.3451 132.486 13.3585 132.542 13.4157C132.598 13.4729 132.623 13.5892 132.615 13.7647C132.563 14.3826 132.392 14.9262 132.103 15.3953C131.814 15.8645 131.422 16.2307 130.927 16.4939ZM138.3 16.8887C139.253 16.8887 140.094 16.7018 140.822 16.328C141.55 15.9542 142.116 15.4564 142.522 14.8346C142.927 14.2129 143.129 13.5282 143.129 12.7806C143.129 12.6357 143.103 12.5327 143.051 12.4716C142.998 12.4106 142.934 12.3801 142.859 12.3801C142.807 12.3801 142.745 12.3973 142.674 12.4316C142.602 12.4659 142.522 12.5327 142.432 12.6318C142.274 13.1201 141.964 13.5015 141.503 13.7761C141.041 14.0508 140.51 14.1881 139.91 14.1881C138.972 14.1881 138.221 13.8658 137.659 13.2212C137.329 12.8433 137.095 12.3402 136.959 11.712L136.948 11.6592H142.094C142.419 11.6592 142.675 11.573 142.86 11.4008L142.904 11.3559C143.092 11.1538 143.186 10.8772 143.186 10.5263C143.186 9.71766 142.996 8.9834 142.617 8.32351C142.238 7.66363 141.696 7.14106 140.991 6.75581C140.285 6.37055 139.445 6.17793 138.469 6.17793C137.321 6.17793 136.338 6.40679 135.52 6.86452C134.702 7.32224 134.077 7.96115 133.645 8.78123C133.214 9.60132 132.998 10.5568 132.998 11.6477C132.998 12.6852 133.221 13.5988 133.668 14.3884C134.114 15.1779 134.735 15.792 135.531 16.2307C136.326 16.6693 137.249 16.8887 138.3 16.8887ZM136.814 10.1945C136.814 10.3839 136.82 10.5663 136.83 10.7419L136.832 10.7666H138.582C138.867 10.7666 139.009 10.6064 139.009 10.286C139.009 9.24087 138.895 8.49325 138.666 8.04315C138.437 7.59306 138.191 7.36801 137.929 7.36801C137.726 7.36801 137.542 7.45383 137.377 7.62548C137.212 7.79713 137.077 8.08893 136.972 8.50088C136.867 8.91283 136.814 9.47736 136.814 10.1945ZM150.008 16.6598C150.188 16.6598 150.325 16.6121 150.418 16.5168C150.512 16.4214 150.559 16.2974 150.559 16.1449C150.559 16.0152 150.525 15.9027 150.458 15.8073C150.39 15.7119 150.278 15.6528 150.12 15.6299L149.276 15.4583C149.133 15.4278 149.028 15.3496 148.961 15.2237C148.893 15.0978 148.859 14.9281 148.859 14.7145V10.6865C148.859 10.2364 148.886 9.86642 148.938 9.57653C148.991 9.28664 149.068 9.07113 149.169 8.92999C149.27 8.78886 149.388 8.7183 149.524 8.7183C149.659 8.7183 149.756 8.76788 149.816 8.86706C149.876 8.96623 149.91 9.10355 149.918 9.27901L149.929 9.73673C149.944 10.2555 150.085 10.656 150.351 10.9383C150.617 11.2205 151.028 11.3617 151.584 11.3617C152.154 11.3617 152.619 11.1557 152.979 10.7437C153.34 10.3318 153.52 9.68715 153.52 8.80984C153.52 7.92491 153.347 7.26502 153.002 6.83019C152.657 6.39535 152.161 6.17793 151.516 6.17793C150.983 6.17793 150.492 6.34385 150.041 6.6757C149.591 7.00755 149.229 7.51486 148.955 8.19764C148.909 8.31143 148.868 8.43026 148.829 8.55412L148.81 8.62008L148.724 6.84163C148.704 6.63141 148.668 6.47846 148.615 6.38277L148.595 6.34958C148.531 6.25803 148.435 6.21226 148.308 6.21226C148.218 6.21226 148.109 6.22752 147.981 6.25803C147.854 6.28855 147.696 6.34195 147.508 6.41823L144.311 7.34513C144.131 7.41378 144.004 7.49579 143.929 7.59115C143.854 7.68651 143.816 7.79522 143.816 7.91728C143.816 8.02408 143.841 8.11181 143.889 8.18047C143.938 8.24913 144.015 8.31397 144.12 8.375L144.413 8.40933C144.51 8.45511 144.58 8.51804 144.621 8.59814C144.662 8.67825 144.683 8.80984 144.683 8.99293V14.806C144.683 15.0349 144.664 15.1989 144.627 15.2981C144.589 15.3973 144.522 15.4697 144.424 15.5155L144.165 15.6185C144.068 15.6871 143.991 15.7615 143.934 15.8416C143.878 15.9217 143.85 16.0228 143.85 16.1449C143.85 16.3051 143.897 16.4309 143.991 16.5225C144.084 16.614 144.214 16.6598 144.379 16.6598H150.008ZM161.861 15.9961C161.148 16.614 160.124 16.923 158.788 16.923C158.338 16.923 157.965 16.881 157.668 16.7971C157.372 16.7132 157.131 16.6293 156.948 16.5454C156.764 16.4615 156.616 16.4195 156.503 16.4195C156.39 16.4195 156.242 16.4615 156.058 16.5454L155.507 16.7971C155.323 16.881 155.167 16.923 155.04 16.923C154.927 16.923 154.822 16.8849 154.724 16.8086C154.627 16.7323 154.552 16.5797 154.499 16.3508L154.15 14.0737C154.083 13.7838 154.071 13.5397 154.116 13.3413C154.161 13.143 154.263 13.0133 154.42 12.9522C154.585 12.876 154.749 12.8721 154.91 12.9408C155.071 13.0095 155.216 13.1315 155.343 13.307C155.771 13.9707 156.158 14.4932 156.503 14.8747C156.848 15.2561 157.184 15.525 157.51 15.6814C157.837 15.8378 158.18 15.916 158.54 15.916C158.923 15.916 159.208 15.8245 159.396 15.6414C159.584 15.4583 159.677 15.2256 159.677 14.9433C159.677 14.7297 159.623 14.5352 159.514 14.3597C159.405 14.1843 159.207 14.0222 158.918 13.8734C158.629 13.7247 158.214 13.5778 157.674 13.4329C156.841 13.2193 156.15 12.9408 155.602 12.5975C155.055 12.2542 154.647 11.8423 154.381 11.3617C154.115 10.881 153.981 10.3203 153.981 9.67952C153.981 8.95479 154.16 8.33114 154.516 7.80857C154.873 7.286 155.36 6.88359 155.979 6.60132C156.599 6.31906 157.295 6.17793 158.068 6.17793C158.533 6.17793 158.912 6.2237 159.205 6.31525C159.497 6.40679 159.724 6.49834 159.886 6.58988C160.047 6.68143 160.169 6.7272 160.252 6.7272C160.342 6.7272 160.475 6.68333 160.651 6.5956C160.828 6.50787 161.006 6.42205 161.186 6.33813C161.366 6.25422 161.516 6.21226 161.636 6.21226C161.771 6.21226 161.88 6.25803 161.963 6.34958C162.045 6.44112 162.102 6.59751 162.132 6.81874L162.424 8.92427C162.477 9.22942 162.484 9.46401 162.447 9.62802C162.409 9.79204 162.312 9.89694 162.154 9.94271C162.026 9.97322 161.891 9.94843 161.749 9.86833C161.606 9.78823 161.464 9.66045 161.321 9.48499C160.773 8.65345 160.272 8.06604 159.818 7.72275C159.364 7.37945 158.882 7.20781 158.372 7.20781C158.004 7.20781 157.726 7.28791 157.539 7.44811C157.351 7.60832 157.257 7.81811 157.257 8.07748C157.257 8.25294 157.298 8.41696 157.381 8.56954C157.464 8.72211 157.616 8.86515 157.837 8.99865C158.058 9.13216 158.372 9.26375 158.777 9.39344C159.865 9.7291 160.709 10.0857 161.31 10.4634C161.91 10.841 162.33 11.2739 162.571 11.7622C162.811 12.2504 162.931 12.8187 162.931 13.4672C162.931 14.5352 162.574 15.3782 161.861 15.9961Z" fill="#333D4B"/>
<path fill-rule="evenodd" clip-rule="evenodd" d="M9.93826 3.07878C7.51092 0.647703 3.91292 0.297736 1.91759 2.29992C-0.078766 4.30107 0.270364 7.9077 2.69355 10.3398C3.34001 10.9878 4.08489 11.4832 4.87121 11.8383C5.12917 10.3357 5.86887 8.89114 6.99189 7.70519C6.61997 7.57227 6.23872 7.46011 5.8409 7.35107C3.48505 6.70306 2.31438 4.73307 2.04088 2.4235C2.26709 2.69617 2.47304 2.98217 2.6784 3.26733C3.07682 3.8206 3.47296 4.3707 4.0103 4.81407C4.84619 5.50399 5.76371 5.77031 6.7675 6.06167C6.80625 6.07292 6.84513 6.08421 6.88415 6.09556C7.35967 6.23367 7.77303 6.43825 8.1522 6.6771C9.14883 5.94705 10.2729 5.46105 11.4332 5.26062C11.0799 4.47241 10.5847 3.72679 9.93826 3.07878ZM5.83365 12.4157C5.98801 10.911 6.71528 9.43945 7.88077 8.27117C10.3081 5.84009 13.9061 5.48908 15.9014 7.49231C17.8978 9.49345 17.5497 13.1001 15.1234 15.5322C13.9579 16.7005 12.4899 17.4295 10.9888 17.5853C10.7888 17.605 10.5909 17.6154 10.3972 17.6154C9.10635 17.6154 7.95329 17.1616 7.10378 16.31C6.1258 15.3307 5.67411 13.9475 5.83365 12.4157ZM9.384 13.6505C10.1796 13.0419 11.0406 12.801 11.9771 12.5445C14.3329 11.8965 15.5026 9.9265 15.7771 7.61692C15.5528 7.88806 15.3484 8.17211 15.1445 8.45531L15.1445 8.45535C14.7449 9.01059 14.3476 9.56256 13.8077 10.0075C12.9692 10.6985 12.0496 10.9653 11.0413 11.2578L10.9338 11.289C8.62876 11.9598 7.48917 13.9132 7.22602 16.1864C7.4531 15.913 7.66111 15.6291 7.86803 15.3467L7.86804 15.3466C8.31722 14.7336 8.76127 14.1275 9.384 13.6505Z" fill="#0E8784"/>
</svg>
